<svg width="32" height="32" viewBox="0 0 32 32" fill="none" xmlns="http://www.w3.org/2000/svg">
<path d="M15.9822 4.60285C22.2961 4.60285 27.3971 9.70392 27.3971 16.0178C27.3971 22.3317 22.2961 27.4328 15.9822 27.4328C9.66825 27.4328 4.56718 22.3317 4.56718 16.0178C4.56718 9.70392 9.66825 4.60285 15.9822 4.60285ZM15.9822 1C7.74197 1 1 7.74197 1 16.0178C1 24.2937 7.74197 31 15.9822 31C24.2224 31 30.9643 24.258 30.9643 16.0178C30.9643 7.77765 24.258 1 15.9822 1Z" fill="#B50BF2"/>
<path d="M29.252 1H15.982V4.56718H29.252V1Z" fill="#B50BF2"/>
<path d="M16.0179 27.4324H2.74794V30.9996H16.0179V27.4324Z" fill="#B50BF2"/>
<path d="M15.9825 19.1571C17.7162 19.1571 19.1216 17.7517 19.1216 16.018C19.1216 14.2843 17.7162 12.8789 15.9825 12.8789C14.2488 12.8789 12.8433 14.2843 12.8433 16.018C12.8433 17.7517 14.2488 19.1571 15.9825 19.1571Z" fill="#B50BF2"/>
</svg>
