<svg viewBox="0 0 27.76 8.41" xmlns="http://www.w3.org/2000/svg" role="img" aria-label="OTRA">
  <path fill="#B50BF2" d="M11.8.98h-1.48v2.47h-1V0h5.92v3.45h-.98V.98h-1.49v7.42h-.98V.98Z"/>
  <path fill="#B50BF2" d="M26.63.01h1.13v8.4h-1.07v-1.26l-2.29-1.34-1.54,2.6h-1.18L26.63.01ZM26.69,6V1.89l-1.8,3.06,1.8,1.04Z"/>
  <path fill="#B50BF2" d="M21.31,7.51l-3.2-2.81h1.44c1.31,0,2.35-1.04,2.35-2.34S20.84.01,19.55.01h-3.13v8.4h.98v-3.02l3.4,2.99.51-.86ZM17.45,1h2.06c.74,0,1.37.61,1.37,1.37s-.62,1.36-1.37,1.36h-2.06V1Z"/>
  <path fill="#B50BF2" d="M4.2,1.01c1.77,0,3.2,1.43,3.2,3.2s-1.43,3.2-3.2,3.2-3.2-1.43-3.2-3.2,1.43-3.2,3.2-3.2M4.2,0C1.89,0,0,1.89,0,4.21s1.89,4.2,4.2,4.2,4.2-1.89,4.2-4.2S6.52,0,4.2,0h0Z"/>
  <rect fill="#B50BF2" x="4.2" y="0" width="3.72" height="1"/>
  <rect fill="#B50BF2" x=".49" y="7.41" width="3.72" height="1"/>
  <circle fill="#B50BF2" cx="4.2" cy="4.21" r=".88"/>
</svg>
