<svg width="82" height="24" viewBox="0 0 82 24" fill="none" xmlns="http://www.w3.org/2000/svg">
<path d="M78.5149 24V20.4051L71.9757 16.5706L67.5934 24H64.3066L78.4122 0.0343018H81.3565V24H78.5149ZM73.3794 14.1398L78.5149 17.1184V5.40946L73.3794 14.1398Z" fill="#FF5C1C"/>
<path d="M46.499 24V0.0343018H56.7016C60.3991 0.0343018 63.4119 3.04713 63.4119 6.74469C63.4119 10.4423 60.3991 13.4208 56.7016 13.4208H50.1624L63.4462 21.6034L61.974 24L49.3064 16.2283V24H46.499ZM49.3064 10.6134H56.7016C58.8585 10.6134 60.6045 8.86737 60.6045 6.74469C60.6045 4.58778 58.8585 2.84171 56.7016 2.84171H49.3064V10.6134Z" fill="#FF5C1C"/>
<path d="M32.9014 23.9999V2.80741H28.6903V9.86017H25.8486V0H42.7616V9.86017H39.9541V2.80741H35.7088V23.9999H32.9014Z" fill="#FF5C1C"/>
<path d="M11.9828 24C8.80519 24 5.7562 22.7377 3.50926 20.4907C1.26232 18.2438 0 15.1948 0 12.0171C0 8.83949 1.26232 5.7905 3.50926 3.54356C5.7562 1.29662 8.80519 0.0343018 11.9828 0.0343018C15.1605 0.0343018 18.2095 1.29662 20.4564 3.54356C22.7034 5.7905 23.9657 8.83949 23.9657 12.0171C23.9657 15.1948 22.7034 18.2438 20.4564 20.4907C18.2095 22.7377 15.1605 24 11.9828 24ZM2.84165 12.0171C2.84165 14.4329 3.79732 16.7792 5.50004 18.4929C7.21704 20.2209 9.55391 21.1926 11.9899 21.1926C14.4177 21.1926 16.751 20.2247 18.4677 18.508C20.1882 16.7874 21.1583 14.4504 21.1583 12.0171C21.1583 9.58387 20.1882 7.24684 18.4677 5.52626C16.751 3.80955 14.4177 2.84171 11.9899 2.84171C9.55391 2.84171 7.21704 3.81343 5.50004 5.54144C3.79732 7.25508 2.84165 9.6014 2.84165 12.0171Z" fill="#FF5C1C"/>
</svg>
